<svg width="64" height="64" viewBox="0 0 16 16" xmlns="http://www.w3.org/2000/svg" shape-rendering="crispEdges">
  <!-- Outline -->
  <path d="M4 1 h8 v2 h-1 v1 h-1 v1 h-1 v2 h1 v1 h1 v1 h1 v2 h-8 v-2 h1 v-1 h1 v-1 h1 v-2 h-1 v-1 h-1 v-1 h1 v-2 z" fill="#5d4037"/>
  <!-- Wood ends -->
  <path d="M5 2 h6 v1 h-6 z M5 13 h6 v1 h-6 z" fill="#8d6e63"/>
  <!-- Glass/Sand top -->
  <path d="M6 4 h4 v1 h-1 v1 h-2 v-1 h-1 z" fill="#e0f7fa" opacity="0.5"/>
  <path d="M7 5 h2 v1 h-2 z" fill="#ffd54f"/>
  <!-- Sand bottom -->
  <path d="M6 10 h4 v2 h-4 z" fill="#ffd54f"/>
  <!-- Falling sand -->
  <path d="M7 7 h2 v2 h-2 z" fill="#ffecb3"/>
</svg>
