<svg width="64" height="64" viewBox="0 0 16 16" xmlns="http://www.w3.org/2000/svg" shape-rendering="crispEdges">
  <!-- Outer outline -->
  <path d="M8 0 h1 v4 h3 v1 h3 v3 h1 v2 h-2 v1 h-1 v3 h-1 v2 h-2 v-1 h-1 v-1 h-3 v1 h-1 v1 h-2 v-2 h-1 v-3 h-1 v-1 h-2 v-2 h1 v-3 h3 v-1 h3 v-4 z" fill="#8d4b24"/>
  <!-- Inner gold -->
  <path d="M8 1 h1 v4 h3 v1 h2 v2 h-1 v2 h-1 v2 h-1 v2 h-2 v-2 h-1 v-2 h-3 v2 h-1 v2 h-2 v-2 h-1 v-2 h-1 v-2 h2 v-1 h3 v-4 z" fill="#fecf0f"/>
  <!-- Highlight -->
  <path d="M8 2 h1 v3 h2 v1 h2 v1 h-1 v1 h-1 v1 h-1 v1 h-1 v-1 h-1 v-1 h-2 v1 h-1 v1 h-1 v-1 h-1 v-1 h-1 v-1 h2 v-1 h2 v-3 z" fill="#fff5cc" opacity="0.6"/>
</svg>
